<svg xmlns="http://www.w3.org/2000/svg" viewBox="0 0 512 450">
  <path fill="#bcd35f" stroke="#3a68b1" stroke-opacity=".8" stroke-width="13.36750221" d="M505.31663 236.92628v-57.57533l-83.22387-67.73525V76.054663l-56.59222-42.33458h-86.55276l-1.6645-27.0941097-111.51994 1.69338L84.203941 86.214953l-1.66443 23.707347h-36.61849L7.6380013 170.88404v66.04224z"/>
  <text x="96.684441" y="204.67534" fill="#fff" style="text-align:start;line-height:125%;-inkscape-font-specification:FORCED SQUARE Medium" font-size="133.67500305" font-weight="500" letter-spacing="0" word-spacing="0" transform="scale(.99143 1.00864)" font-family="FORCED SQUARE">
    <tspan x="96.684441" y="204.67534" style="text-align:start;line-height:125%;-inkscape-font-specification:FORCED SQUARE Medium">LESS</tspan>
  </text>
  <text x="139.84419" y="107.09562" fill="#fff" style="text-align:start;line-height:125%;-inkscape-font-specification:FORCED SQUARE Medium" font-size="110.33100891" font-weight="500" letter-spacing="0" word-spacing="0" transform="scale(.99143 1.00864)" font-family="FORCED SQUARE">
    <tspan x="139.84419" y="107.09562" style="text-align:start;line-height:125%;-inkscape-font-specification:FORCED SQUARE Medium">scss</tspan>
  </text>
  <path fill="#59f" fill-opacity=".8" stroke="#3a68b1" stroke-opacity=".8" stroke-width="10.828650000000001" d="M63.95454184 257.29789934c-1.10524106-1.27922087-3.30417264-1.27922087-4.4094137 0-1.93399137 2.23430508-47.38098383 55.02743273-47.38098383 81.25867964 0 27.0130732 22.24342746 48.99011662 49.5856907 48.99011662 27.34226322 0 49.58569066-21.97704342 49.58569066-48.99011662-.0007219-26.2312469-45.44771436-79.02365266-47.38098382-81.25867964z"/>
  <g fill="#fff">
    <g opacity=".4125">
      <path d="M86.550051 305.31658055c-.8287503-1.3817318-2.62052582-1.83148045-4.0022576-.9998425-1.3817318.8287503-1.82859283 2.62052582-.9998425 4.00225762l4.375484 7.2919921c.54720623.91104782 1.51239715 1.41566147 2.50429866 1.41566147.509667 0 1.0279969-.13355297 1.49868088-.41581897 1.3817318-.82875032 1.8285928-2.62052582.9998425-4.00225762l-4.37620593-7.2919921zM74.88257488 287.81608826c-.82586268-1.38028798-2.6176382-1.8285928-4.00225762-.9998425-1.3817318.82875032-1.8285928 2.62052583-.9998425 4.00225763l4.37548403 7.2919921c.5472062.9110478 1.51239712 1.41566146 2.50429863 1.41566146.509667 0 1.0279969-.13355297 1.4986809-.41581897 1.38173178-.82875033 1.8285928-2.62052584.99984248-4.00225763l-4.37620592-7.2919921z"/>
    </g>
    <path d="M46.79128885 335.64571622H35.39760353l-4.92603268 25.37489805H36.321985l1.23150274-6.57845107h5.5432784c5.23464833.3139722 11.08506246-4.0726581 11.08506246-11.59154585 0-4.3851215-2.46303438-6.8909217-7.39053975-7.20490113zm-4.31028852 14.09733884H38.7849905l1.54013284-9.3982307h4.00316c2.15588422 0 3.69451548.9404367 3.69451548 2.8197724-.3071285 5.32555098-2.7716356 6.2644861-5.5417985 6.5784583zm10.53429002 4.69910814l4.92602545-25.37490528h5.85042136l-1.2315244 6.5784583h5.5432784c4.9260399.31397942 6.77478115 2.81977963 6.15902255 5.95201546L72.1066223 354.4421632h-6.15900813l2.155877-11.59154585c.30860843-1.56687953.30860843-2.505793-1.8472758-2.505793h-4.6188897l-2.7716284 14.09733885h-5.8504069zm35.0374698-18.79644698H76.66055472l-4.92602546 25.37489805h5.8503997l1.23150997-6.57845107h5.54326397c5.23317563.31247785 11.08358255-4.0726581 11.08358255-11.59154585 0-4.3851215-2.46301273-6.8909217-7.3905253-7.20490113zm-4.3102741 14.09733884H80.0479417l1.54014727-9.3982307h4.0031167c2.15589142 0 3.69454435.9404367 3.69454435 2.8197724-.30862286 5.32555098-2.7716356 6.2644861-5.54326396 6.5784583z" opacity=".8"/>
  </g>
  <path fill="#59f" fill-opacity=".8" stroke="#3a68b1" stroke-opacity=".8" stroke-width="6.891" d="M232.13909977 253.19244055c-.7033352-.81404964-2.1026553-.81404964-2.80599052 0-1.23072178 1.4218305-30.15153505 35.01745705-30.15153505 51.71006865 0 17.19013743 14.15490832 31.17552864 31.5545303 31.17552864 17.399622 0 31.5545303-13.9853912 31.5545303-31.17552864-.00045938-16.6926116-28.92127265-50.28777876-30.15153503-51.71006865z"/>
  <g fill="#fff">
    <g opacity=".4125">
      <path d="M246.5180601 283.749783c-.52738657-.87928386-1.66760734-1.16548754-2.5468912-.6362634-.87928388.52738657-1.16364997 1.66760734-.6362634 2.5468912l2.7843989 4.6403586c.34822214.5797577.96243454.90087548 1.5936446.90087548.32433353 0 .65417983-.08498825.953706-.26461207.87928387-.52738656 1.16364997-1.66760733.6362634-2.5468912l-2.7848583-4.6403586zM239.0933026 272.61310615c-.525549-.87836508-1.66576976-1.16364997-2.5468912-.6362634-.87928388.52738656-1.16364998 1.66760733-.63626342 2.5468912l2.78439892 4.6403586c.34822213.5797577.96243453.90087547 1.59364458.90087547.32433355 0 .65417985-.08498826.953706-.26461208.87928388-.52738656 1.16364998-1.66760733.63626342-2.5468912l-2.7848583-4.6403586z"/>
    </g>
    <path d="M221.21702973 303.050142h-7.250527l-3.13474805 16.14766233h3.7229908l.78368357-4.18628703h3.5275408c3.33113982.1998005 7.05413062-2.5916915 7.05413062-7.37643824 0-2.79053185-1.56738552-4.38513198-4.70307074-4.58493706zm-2.74291086 8.97103377h-2.35200625l.98008453-5.98069224h2.54746545c1.3719263 0 2.3510553.5984597 2.3510553 1.79440062-.19544542 3.38898696-1.7637681 3.98649113-3.52659903 4.18629162zm6.70363907 2.99034153l3.13474346-16.14766693h3.7229954l-.78369736 4.18629163h3.5275408c3.13475264.19980508 4.31122435 1.7944052 3.91937797 3.7876462l-1.3719309 8.1737291h-3.9193688l1.37192173-7.37643824c.19638718-.99710515.19638718-1.59459553-1.17553913-1.59459553h-2.93929345l-1.7637635 8.97103377h-3.7229862zm22.2965716-11.9613753h-7.24958524l-3.13474346 16.14766233h3.72298162l.78368816-4.18628703h3.5275316c3.33020266.19884954 7.05318886-2.5916915 7.05318886-7.37643824 0-2.79053185-1.56737173-4.38513198-4.70306154-4.58493706zm-2.74290168 8.97103377h-2.35107367l.9800937-5.98069224h2.5474379c1.3719309 0 2.35107366.5984597 2.35107366 1.79440062-.19639637 3.38898696-1.7637681 3.98649113-3.5275316 4.18629162z" opacity=".8"/>
  </g>
  <g>
    <path fill="#59f" fill-opacity=".8" stroke="#3a68b1" stroke-opacity=".8" stroke-width="13.78185" d="M414.51769954 269.8263031c-1.40667043-1.6280993-4.20531062-1.6280993-5.61198105 0-2.46144356 2.843661-60.3030701 70.0349141-60.3030701 103.4201373 0 34.38027486 28.30981665 62.35105728 63.10906062 62.35105728 34.79924397 0 63.1090606-27.97078242 63.1090606-62.35105728-.00091878-33.3852232-57.84254532-100.57555752-60.30307008-103.4201373z"/>
    <g fill="#fff">
      <g opacity=".4125">
        <path d="M443.2756202 330.94098802c-1.05477314-1.75856773-3.33521468-2.3309751-5.09378242-1.2725268-1.75856773 1.05477312-2.32729993 3.33521466-1.2725268 5.0937824l5.56879782 9.28071718c.69644428 1.1595154 1.92486907 1.80175096 3.18728917 1.80175096.6486671 0 1.3083597-.1699765 1.90741203-.52922415 1.75856773-1.0547731 2.32729993-3.33521466 1.2725268-5.0937824l-5.5697166-9.28071718zM428.42610518 308.6676343c-1.05109796-1.75673015-3.3315395-2.32729993-5.0937824-1.2725268-1.75856774 1.0547731-2.32729994 3.33521466-1.27252682 5.0937824l5.56879783 9.28071718c.69644427 1.1595154 1.92486906 1.80175095 3.18728916 1.80175095.6486671 0 1.3083597-.1699765 1.90741203-.52922414 1.75856772-1.05477314 2.32729992-3.33521468 1.2725268-5.09378242l-5.56971662-9.28071718z"/>
      </g>
      <path d="M392.67355946 369.541706h-14.50105398l-6.2694961 32.29532466h7.4459816l1.56736712-8.37257406h7.05508158c6.66227965.39960098 14.10826125-5.183383 14.10826125-14.75287647 0-5.5810637-3.13477102-8.77026396-9.40614147-9.16987413zm-5.48582173 17.94206755h-4.7040125l1.96016907-11.9613845h5.0949309c2.74385262 0 4.7021106 1.19691943 4.7021106 3.58880124-.39089085 6.77797393-3.5275362 7.97298226-7.05319807 8.37258325zm13.40727815 5.98068305l6.26948692-32.29533385h7.4459908l-1.5673947 8.37258325h7.05508156c6.2695053.39961017 8.62244872 3.58881043 7.83875596 7.57529237l-2.7438618 16.34745823h-7.8387376l2.74384344-14.75287647c.39277436-1.9942103.39277436-3.18919107-2.35107826-3.18919107h-5.8785869l-3.527527 17.94206754h-7.44597242zm44.5931432-23.9227506H430.6889886l-6.2694869 32.29532466h7.4459632l1.56737634-8.37257406h7.0550632c6.66040532.39769908 14.10637773-5.183383 14.10637773-14.75287647 0-5.5810637-3.13474346-8.77026396-9.4061231-9.16987413zm-5.48580336 17.94206755h-4.70214735l1.96018744-11.9613845h5.09487577c2.74386182 0 4.70214735 1.19691943 4.70214735 3.58880124-.39279273 6.77797393-3.5275362 7.97298226-7.0550632 8.37258325z" opacity=".8"/>
    </g>
  </g>
</svg>
