<svg xmlns="http://www.w3.org/2000/svg" xmlns:xlink="http://www.w3.org/1999/xlink" viewBox="0 0 1000 870">
  <defs>
    <radialGradient id="g" cx="493.5007" cy="917.05621" r="16.9844" xlink:href="#a" gradientUnits="userSpaceOnUse" gradientTransform="translate(-345.2 -811.68)"/>
    <radialGradient id="h" cx="479.84415" cy="875.65735" r="53.322399" xlink:href="#b" gradientUnits="userSpaceOnUse" gradientTransform="translate(-276.824 -685.7) scale(.8613)" fx="479.84415" fy="875.65735"/>
    <radialGradient id="i" cx="492.75659" cy="907.39502" r="28.68" xlink:href="#c" gradientUnits="userSpaceOnUse" gradientTransform="translate(-345.2 -811.68)"/>
    <radialGradient id="d" cx="493.5007" cy="917.05621" r="16.9844" xlink:href="#a" gradientUnits="userSpaceOnUse" gradientTransform="translate(-345.2 -811.68)"/>
    <radialGradient id="e" cx="479.84415" cy="875.65735" r="53.322399" xlink:href="#b" gradientUnits="userSpaceOnUse" gradientTransform="translate(-276.824 -685.7) scale(.8613)" fx="479.84415" fy="875.65735"/>
    <radialGradient id="f" cx="492.75659" cy="907.39502" r="28.68" xlink:href="#c" gradientUnits="userSpaceOnUse" gradientTransform="translate(-345.2 -811.68)"/>
    <radialGradient id="j" cx="493.5007" cy="917.05621" r="16.9844" xlink:href="#a" gradientUnits="userSpaceOnUse" gradientTransform="translate(-345.2 -811.68)"/>
    <radialGradient id="k" cx="479.84415" cy="875.65735" r="53.322399" xlink:href="#b" gradientUnits="userSpaceOnUse" gradientTransform="translate(-276.824 -685.7) scale(.8613)" fx="479.84415" fy="875.65735"/>
    <radialGradient id="l" cx="492.75659" cy="907.39502" r="28.68" xlink:href="#c" gradientUnits="userSpaceOnUse" gradientTransform="translate(-345.2 -811.68)"/>
  </defs>
  <path fill="#f95" stroke="#3a68b1" stroke-opacity=".8" stroke-width="15.38009167" d="M7.6900343 270.39308V154.49451l96.5816957-27.04293V86.887181l65.6754-48.29096h100.4449l1.9317-30.9061901 129.4194 1.93162 94.65 88.8553601 1.9316 27.042929h42.49594l44.42756 69.53896v75.33418z"/>
  <text x="82.445679" y="236.88129" fill="#fff" style="text-align:start;line-height:125%;-inkscape-font-specification:FORCED SQUARE Medium" font-size="182.44276428" font-weight="500" letter-spacing="0" word-spacing="0" font-family="FORCED SQUARE">
    <tspan x="82.445679" y="236.88129" style="text-align:start;line-height:125%;-inkscape-font-specification:FORCED SQUARE Medium">scss</tspan>
  </text>
  <path fill="#bcd35f" stroke="#3a68b1" stroke-opacity=".8" stroke-width="18.24427795" d="M990.87792 501.62372v-77.9067l-114.56775-91.65437v-48.11858l-77.90605-57.28402H679.25374l-2.29139-36.66177-153.52073 2.29136-112.27639 105.40259-2.2913 32.07905h-50.4098l-52.7012 82.48894v89.3635z"/>
  <text x="427.20544" y="460.37817" fill="#fff" style="text-align:start;line-height:125%;-inkscape-font-specification:FORCED SQUARE Medium" font-size="182.44276428" font-weight="500" letter-spacing="0" word-spacing="0" font-family="FORCED SQUARE">
    <tspan x="427.20544" y="460.37817" style="text-align:start;line-height:125%;-inkscape-font-specification:FORCED SQUARE Medium">LESS</tspan>
  </text>
  <g transform="matrix(3.9635 0 0 3.9635 106.53 297.975)" opacity=".8">
    <radialGradient id="a" cx="493.5007" cy="917.05621" r="16.9844" gradientUnits="userSpaceOnUse" gradientTransform="translate(-345.2 -811.68)">
      <stop offset=".0051" stop-color="#203C85"/>
      <stop offset="1" stop-color="#3968B1"/>
    </radialGradient>
    <path fill="url(#d)" d="M163.75072 125.51887l-30.19029-.19849-1.9077-21.78044L148.931 63.35196l17.24484 39.89966z"/>
    <radialGradient id="b" cx="492.77609" cy="876.31488" r="53.322399" gradientUnits="userSpaceOnUse" gradientTransform="translate(-345.2 -811.68)">
      <stop offset=".21806912" stop-color="#2E92D1"/>
      <stop offset=".3224" stop-color="#2D90CF"/>
      <stop offset=".4771" stop-color="#2A89CA"/>
      <stop offset=".626" stop-color="#277DC1"/>
      <stop offset=".7711" stop-color="#266CB4"/>
      <stop offset=".9123" stop-color="#2658A5"/>
      <stop offset="1" stop-color="#284999"/>
    </radialGradient>
    <path fill="url(#e)" d="M153.49701 120.80803l-10.98034.0677-6.41775-16.79899 1.65548-5.360826 11.19879-26.473861 10.6876 26.94587 1.34098 4.816377z"/>
    <path fill="#006dbf" d="M159.41869 98.942037l-10.56418-4.505149-11.03466 4.363457 11.11215 3.962695z" opacity=".68999999"/>
    <radialGradient id="c" cx="492.75659" cy="907.39502" r="28.68" gradientUnits="userSpaceOnUse" gradientTransform="translate(-345.2 -811.68)">
      <stop offset=".2267312" stop-color="#64C6E1"/>
      <stop offset="1" stop-color="#0077B2"/>
    </radialGradient>
    <path fill="url(#f)" d="M159.82345 98.835963L148.931 102.60805l-11.22023-3.914779-2.12071 5.436579 1.30887 16.94777 22.85873.49007 2.17822-17.69503z"/>
    <path fill="#ffefc6" d="M151.56226 83.025345l4.68944 12.429877-.64351 3.120327-1.70753-2.475476z" opacity=".44583333"/>
    <path fill="#ffefc6" d="M156.92796 118.37873l-8.12634 1.43321 9.00344.18117 1.96783-5.74875z" opacity=".32083333"/>
  </g>
  <path fill="#fff" opacity=".8" d="M675.60596925 725.3169272h-14.55606422l-6.2932906 31.86458735h7.47422583l1.57332264-8.26090983h7.0818384c6.6875645.39427498 14.1617903-5.1142559 14.1617903-14.5561042 0-5.5066444-3.14664528-8.65329833-9.44182235-9.04757332zm-5.50662927 17.70275814h-4.72185443l1.96759655-11.80183876h5.11424185c2.75425787 0 4.71996794 1.18093847 4.71996794 3.54092893-.39238743 6.68758287-3.5409192 7.86663486-7.07995192 8.26090984zM683.557474 748.92060472l6.2932906-31.86458735h7.4742258l-1.57332264 8.26090983h7.0818384c6.2932906.394275 8.65516104 3.54092893 7.86849972 7.47424635l-2.75425788 16.12943117h-7.86849972l2.75425788-14.5561042c.3942739-1.96760195.3942739-3.14665394-2.35998397-3.14665394H694.572619l-3.5409192 17.70275814H683.557474zM728.31982388 725.3169272h-14.55417774l-6.2932906 31.86458735h7.47422583l1.57332265-8.26090983h7.0818384c6.685678.3923885 14.15990383-5.1142559 14.15990383-14.5561042 0-5.5066444-3.1466453-8.65329833-9.44182237-9.04757332zm-5.50662927 17.70275814h-4.71996793l1.96759655-11.80183876h5.11424184c2.75425788 0 4.71996795 1.18093847 4.71996795 3.54092893-.3942739 6.68758287-3.5409192 7.86663486-7.0818384 8.26090984z"/>
  <g opacity=".8">
    <path fill="url(#g)" d="M163.75072 125.51887l-30.19029-.19849-1.9077-21.78044L148.931 63.35196l17.24484 39.89966z" transform="translate(-279.28 132.517) scale(2.90656)"/>
    <path fill="url(#h)" d="M153.49701 120.80803l-10.98034.0677-6.41775-16.79899 1.65548-5.360826 11.19879-26.473861 10.6876 26.94587 1.34098 4.816377z" transform="translate(-279.28 132.517) scale(2.90656)"/>
    <path fill="#006dbf" d="M184.0799876 420.09796706l-30.705423-13.09448587-32.07290138 12.68264956 32.2981307 11.51781078z" opacity=".68999999"/>
    <path fill="url(#i)" d="M159.82345 98.835963L148.931 102.60805l-11.22023-3.914779-2.12071 5.436579 1.30887 16.94777 22.85873.49007 2.17822-17.69503z" transform="translate(-279.28 132.517) scale(2.90656)"/>
    <path fill="#ffefc6" d="M161.24480243 373.83514676l13.63013872 36.1281833-1.87040042 9.06941764-4.9630384-7.19511952z" opacity=".44583333"/>
    <path fill="#ffefc6" d="M176.84053142 476.59188147l-23.6196948 4.16571086 26.16903857.52658147 5.71961596-16.7090868z" opacity=".32083333"/>
  </g>
  <path fill="#fff" opacity=".8" d="M138.04450275 445.9006416h-10.67444712l-4.61507978 23.36736397h5.48109895l1.15376994-6.05800052h5.19334817c4.904214.289135 10.38531294-3.7504543 10.38531294-10.67447637 0-4.03820587-2.3075399-6.34575208-6.9240031-6.63488707zm-4.0381948 12.9820226h-3.46269326l1.44290413-8.65468173h3.75044403c2.0197891 0 3.46130983.86602154 3.46130983 2.5966812-.28775078 4.90422742-2.5966741 5.76886553-5.19196476 6.05800052zM143.87560625 463.21000505l4.61507978-23.36736396h5.48109895l-1.15376995 6.0580005h5.19334817c4.6150798.289135 6.34711812 2.5966812 5.77023315 5.48111398l-2.0197891 11.82824947h-5.77023316l2.0197891-10.67447637c.2891342-1.4429081.2891342-2.3075462-1.7306549-2.3075462h-4.32732902l-2.59667408 12.98202257h-5.48109895zM176.70132958 445.9006416h-10.6730637l-4.61507978 23.36736397h5.48109895l1.15376994-6.05800052h5.19334817c4.90283055.28775157 10.3839295-3.7504543 10.3839295-10.67447637 0-4.03820587-2.3075399-6.34575208-6.9240031-6.63488707zm-4.0381948 12.9820226h-3.46130984l1.44290414-8.65468173h3.75044403c2.01978912 0 3.46130985.86602154 3.46130985 2.5966812-.2891342 4.90422742-2.5966741 5.76886553-5.19334817 6.05800052z"/>
  <g>
    <g opacity=".8">
      <path fill="url(#j)" d="M163.75072 125.51887l-30.19029-.19849-1.9077-21.78044L148.931 63.35196l17.24484 39.89966z" transform="matrix(5.02042 0 0 5.02043 -317.78 239.84)"/>
      <path fill="url(#k)" d="M153.49701 120.80803l-10.98034.0677-6.41775-16.79899 1.65548-5.360826 11.19879-26.473861 10.6876 26.94587 1.34098 4.816377z" transform="matrix(5.02042 0 0 5.02043 -317.78 239.84)"/>
      <path fill="#006dbf" d="M482.56877965 736.57157082l-53.03662056-22.6177852-55.39862776 21.90643043 55.7876601 19.89443286z" opacity=".68999999"/>
      <path fill="url(#l)" d="M159.82345 98.835963L148.931 102.60805l-11.22023-3.914779-2.12071 5.436579 1.30887 16.94777 22.85873.49007 2.17822-17.69503z" transform="matrix(5.02042 0 0 5.02043 -317.78 239.84)"/>
      <path fill="#ffefc6" d="M443.12620135 656.6629328l23.54295836 62.4033274-3.23069046 15.66538327-8.57251776-12.42795398z" opacity=".44583333"/>
      <path fill="#ffefc6" d="M470.06426894 834.15212745l-40.79763986 7.19533048 45.20105025.9095513 9.87933308-28.86119696z" opacity=".32083333"/>
    </g>
    <path fill="#fff" opacity=".8" d="M403.0513855 781.1405708H384.613704l-7.9715015 40.36181073h9.4673528l1.99287536-10.46381914h8.97032873c8.4709151.49941497 17.9382679-6.4780575 17.9382679-18.43773204 0-6.97508292-3.98575075-10.96084458-11.9596418-11.46025956zm-6.9750638 22.4234937h-5.98101566l2.492289-14.9489958h6.47803972c3.48872668 0 5.97862613 1.4958554 5.97862613 4.48517664-.4970241 8.47093832-4.48516438 9.96440417-8.9679392 10.46381915zM413.12329163 811.0385624l7.9715015-40.36181075h9.4673528l-1.99287538 10.46381915h8.97032873c7.9715015.49941498 10.9632041 4.48517664 9.9667664 9.46737873l-3.48872667 20.43061286h-9.9667664l3.48872668-18.43773204c.4994136-2.4922958.4994136-3.98576167-2.98931307-3.98576167h-7.4744774l-4.48516437 22.4234937h-9.4673528zM469.8222687 781.1405708h-18.43529197l-7.9715015 40.36181073h9.4673528l1.99287537-10.46381914h8.97032873c8.46852557.49702542 17.93587837-6.4780575 17.93587837-18.43773204 0-6.97508292-3.98575075-10.96084458-11.9596418-11.46025956zm-6.9750638 22.4234937h-5.97862612l2.49228898-14.9489958h6.47803974c3.48872668 0 5.97862612 1.4958554 5.97862612 4.48517664-.4994136 8.47093832-4.48516436 9.96440417-8.97032872 10.46381915z"/>
  </g>
</svg>
